<?xml version="1.0" standalone="no"?>
<!DOCTYPE svg PUBLIC "-//W3C//DTD SVG 20010904//EN"
 "http://www.w3.org/TR/2001/REC-SVG-20010904/DTD/svg10.dtd">
<svg version="1.0" xmlns="http://www.w3.org/2000/svg"
 width="815.000000pt" height="815.000000pt" viewBox="0 0 815.000000 815.000000"
 preserveAspectRatio="xMidYMid meet">
<metadata>
Created by potrace 1.14, written by Peter Selinger 2001-2017
</metadata>
<g transform="translate(0.000000,815.000000) scale(0.100000,-0.100000)"
fill="#000000" stroke="none">
<path d="M4184 7748 c4 -19 -10 -23 -38 -12 -9 3 -13 10 -10 15 9 14 -6 11
-48 -13 -33 -19 -43 -20 -68 -11 -17 6 -32 8 -34 4 -3 -4 -25 -6 -50 -5 -36 2
-49 -2 -60 -18 -8 -11 -17 -15 -20 -9 -4 5 -16 8 -29 5 -39 -9 -89 -6 -99 4
-6 6 -17 7 -27 2 -28 -15 -55 -22 -86 -24 -16 -1 -48 -7 -70 -14 -22 -6 -60
-12 -85 -13 -25 -1 -58 -9 -75 -18 -16 -8 -36 -14 -42 -13 -7 2 -13 -1 -13 -6
0 -6 -11 -13 -25 -16 -13 -3 -29 -15 -34 -25 -7 -12 -19 -17 -36 -16 -14 2
-25 0 -25 -5 0 -8 -57 -34 -63 -29 -2 2 -12 -3 -22 -11 -10 -8 -23 -15 -29
-15 -27 0 -136 -51 -136 -63 0 -7 -4 -11 -9 -7 -5 3 -12 1 -16 -5 -3 -5 -14
-10 -24 -10 -10 0 -21 -9 -24 -20 -3 -14 -10 -18 -22 -14 -9 4 -21 0 -28 -10
-7 -8 -30 -18 -52 -22 -22 -3 -53 -16 -70 -27 -16 -12 -36 -21 -43 -19 -7 2
-11 -3 -10 -9 2 -7 -9 -13 -27 -14 -16 -2 -32 -4 -35 -5 -3 -1 -8 -2 -12 -1
-5 0 -8 -3 -8 -8 0 -5 -16 -16 -35 -25 -19 -9 -35 -21 -35 -26 0 -6 -11 -10
-25 -10 -29 0 -76 -22 -104 -48 -27 -25 -62 -51 -94 -70 -15 -9 -27 -21 -27
-28 0 -6 -9 -19 -20 -29 -11 -10 -18 -20 -15 -23 3 -3 -11 -16 -30 -29 -19
-13 -35 -28 -35 -33 0 -5 -14 -23 -30 -40 -17 -17 -28 -35 -26 -39 3 -4 -20
-32 -51 -62 -32 -29 -58 -60 -58 -69 -1 -9 -13 -32 -27 -51 -14 -19 -24 -39
-21 -45 2 -6 -12 -27 -32 -48 -19 -21 -35 -44 -35 -52 0 -8 -11 -26 -25 -40
-26 -25 -33 -40 -15 -29 9 5 -8 -38 -40 -105 -4 -8 -6 -23 -4 -32 1 -10 -1
-18 -6 -18 -9 0 -20 -49 -23 -105 -1 -22 -6 -46 -10 -52 -5 -7 -6 -17 -2 -22
3 -5 1 -12 -5 -16 -9 -6 -24 -53 -34 -107 -2 -15 -7 -31 -9 -36 -3 -4 -8 -27
-12 -52 -4 -24 -11 -52 -16 -62 -6 -10 -5 -27 1 -44 7 -18 7 -30 0 -39 -5 -6
-7 -15 -4 -18 4 -3 -1 -13 -10 -22 -9 -9 -16 -27 -16 -39 0 -12 -3 -26 -6 -29
-4 -4 -7 -26 -8 -49 -1 -24 -5 -49 -9 -56 -9 -14 -14 -65 -22 -213 -2 -53 -5
-101 -6 -105 -1 -5 0 -11 1 -14 1 -3 4 -44 5 -92 2 -47 8 -95 14 -106 15 -28
14 -62 -1 -62 -10 0 -10 -2 -2 -8 7 -4 14 -38 17 -76 3 -38 10 -72 16 -75 6
-4 6 -12 1 -21 -10 -16 -2 -100 10 -114 5 -5 6 -15 3 -22 -3 -7 2 -20 10 -29
8 -8 14 -26 13 -40 -2 -16 2 -25 10 -25 8 0 11 -6 8 -15 -4 -8 -2 -15 3 -15 5
0 9 -10 10 -22 1 -32 10 -63 23 -88 6 -11 8 -24 6 -29 -3 -5 1 -11 9 -15 8 -3
15 -17 15 -31 0 -15 5 -35 11 -46 6 -11 12 -28 15 -37 2 -9 11 -44 19 -77 9
-33 17 -73 20 -88 2 -16 11 -39 19 -52 9 -14 16 -33 16 -44 0 -11 3 -21 8 -23
4 -1 18 -25 32 -51 14 -27 37 -62 53 -78 15 -16 27 -36 27 -44 0 -8 5 -15 10
-15 18 0 69 -52 72 -74 2 -11 10 -21 18 -21 8 0 15 -5 15 -10 0 -6 15 -26 32
-45 18 -19 33 -39 33 -44 0 -5 7 -16 15 -25 35 -37 85 -96 85 -102 0 -4 12
-12 28 -18 15 -6 33 -25 41 -42 15 -34 100 -124 108 -115 9 9 34 -15 27 -25
-4 -8 0 -10 21 -9 3 0 16 -11 29 -25 13 -13 27 -21 32 -17 4 4 2 -1 -5 -10
-11 -15 -11 -18 1 -18 7 0 20 -9 28 -20 9 -12 21 -18 32 -14 12 3 18 0 18 -10
0 -9 5 -16 10 -16 5 0 20 -10 32 -22 13 -13 25 -24 28 -24 32 -9 50 -18 50
-25 0 -5 8 -9 17 -9 9 0 25 -7 34 -16 10 -9 30 -18 44 -19 13 -2 31 -10 40
-18 12 -12 22 -13 47 -6 41 11 38 12 38 -5 0 -9 7 -12 20 -9 11 3 20 0 20 -6
0 -6 6 -11 14 -11 8 0 27 -5 43 -12 15 -6 31 -11 36 -10 4 1 7 -2 7 -6 0 -5 6
-9 13 -10 6 -1 24 -4 40 -8 21 -5 27 -3 27 10 0 10 5 14 10 11 6 -4 8 -9 6
-13 -2 -4 6 -8 17 -8 103 -7 146 -13 158 -20 7 -4 27 -9 44 -10 47 -4 117 -14
150 -23 40 -11 85 -13 85 -3 0 4 12 9 26 10 15 1 32 6 39 12 6 5 16 6 20 2 5
-4 5 1 2 10 -5 15 -3 16 18 6 13 -6 22 -15 18 -21 -11 -17 21 -26 51 -13 17 7
45 11 61 10 66 -6 91 -10 101 -17 7 -4 14 2 18 16 4 16 8 19 14 9 5 -7 13 -12
18 -11 5 1 14 0 19 -1 9 -2 47 -1 163 4 24 1 47 7 50 13 4 6 18 10 32 10 14 0
42 7 62 16 20 9 45 14 54 10 13 -5 15 -3 9 7 -6 9 -4 11 5 5 8 -5 19 1 31 16
10 13 19 19 19 12 0 -16 42 -3 58 19 7 10 22 18 33 18 10 0 19 5 19 11 0 6 7
9 15 5 8 -3 37 6 65 20 36 18 60 24 85 20 19 -3 37 -2 40 3 3 6 13 10 23 9 9
0 32 3 50 7 20 5 32 4 32 -3 0 -11 31 -9 51 4 6 3 29 6 52 6 23 -1 47 4 55 10
7 7 34 13 60 14 25 1 48 7 50 13 2 6 19 11 38 11 19 0 34 4 34 10 0 5 7 7 15
4 19 -8 78 12 111 39 16 12 43 22 65 22 20 0 44 7 53 14 9 7 16 10 16 5 0 -4
11 3 24 15 13 12 30 22 37 21 30 -5 60 0 55 8 -7 12 31 52 48 52 8 0 16 6 19
14 3 7 20 16 37 20 18 3 40 14 49 24 9 9 30 29 46 42 17 14 32 29 33 35 1 5 8
10 15 11 6 0 22 2 33 2 14 1 24 11 28 26 4 17 17 28 41 36 28 9 36 18 41 46 4
22 12 34 23 34 29 0 45 18 47 51 1 19 7 35 13 37 6 2 11 8 11 13 0 6 -4 8 -9
5 -5 -3 -11 1 -15 9 -6 18 7 27 28 19 25 -9 46 15 46 51 0 30 20 62 32 50 6
-6 47 83 52 115 2 14 20 60 39 102 19 42 38 87 42 100 4 13 15 34 25 48 10 15
16 43 16 72 -1 27 4 48 9 48 6 0 4 4 -3 9 -10 6 -10 10 3 21 8 7 15 20 15 30
0 9 3 20 7 24 4 3 8 14 10 24 3 24 52 173 61 186 14 22 32 82 32 108 0 15 5
30 10 33 6 4 9 22 7 41 -3 18 2 46 10 61 8 16 11 37 7 53 -4 14 -8 62 -10 108
-2 46 -6 95 -9 109 -2 14 1 35 7 47 13 23 19 49 18 83 0 12 9 28 19 35 10 7
17 22 15 33 -2 11 -7 38 -11 60 -11 61 -6 214 11 380 2 17 1 34 -2 40 -3 5 -5
28 -3 52 1 24 -2 43 -7 43 -11 0 -11 18 1 37 4 6 1 14 -5 16 -10 4 -9 6 1 6
11 1 11 4 1 16 -7 8 -10 15 -6 15 3 0 -3 14 -13 30 -14 24 -16 40 -11 70 4 22
4 40 -1 40 -4 0 -6 9 -4 20 2 11 0 22 -6 25 -5 4 -9 18 -9 32 0 18 -14 39 -44
68 -37 34 -43 46 -39 69 3 16 1 31 -6 35 -6 4 -13 17 -16 29 -9 49 -40 138
-50 147 -7 6 -10 16 -8 23 3 6 0 12 -6 12 -6 0 -11 5 -11 10 0 12 -40 71 -55
82 -5 4 -12 5 -15 3 -3 -2 -12 5 -19 17 -10 16 -10 19 1 13 7 -3 5 0 -6 9 -10
8 -16 22 -13 31 4 8 3 15 -2 15 -12 0 -24 52 -14 59 29 21 -7 141 -56 185 -11
10 -18 23 -15 27 3 5 -2 12 -10 15 -9 3 -16 13 -16 20 0 8 -10 19 -22 24 -13
5 -17 9 -10 9 7 1 10 6 7 11 -4 6 -11 8 -16 5 -5 -3 -6 1 -3 9 3 9 2 16 -3 16
-4 0 -32 19 -60 43 -29 23 -63 43 -75 44 -13 1 -24 7 -26 13 -8 23 -33 38 -57
34 -15 -3 -32 2 -41 11 -9 8 -11 15 -5 15 26 0 -4 44 -49 73 -36 23 -97 29
-104 11 -9 -24 -24 -7 -22 25 1 17 -2 28 -6 25 -4 -3 -8 0 -8 5 0 6 -6 11 -14
11 -7 0 -19 6 -26 14 -6 8 -18 12 -26 9 -8 -3 -14 -1 -14 5 0 5 -18 17 -40 26
-22 9 -40 20 -40 26 0 5 -11 12 -25 16 -14 3 -25 9 -25 13 0 4 -16 8 -36 9
-20 1 -50 10 -67 20 -18 10 -48 20 -67 21 -19 1 -42 9 -52 18 -14 13 -18 13
-18 2 0 -12 -2 -12 -9 0 -7 10 -10 10 -13 1 -3 -9 -8 -8 -20 4 -9 9 -26 16
-37 16 -12 0 -21 4 -21 8 0 5 -6 9 -12 9 -7 1 -32 4 -55 8 -32 6 -43 4 -43 -5
0 -10 -3 -10 -15 0 -10 8 -15 9 -15 2 0 -6 -7 -9 -15 -6 -8 4 -15 12 -15 20 0
8 -6 11 -15 8 -8 -4 -13 -9 -11 -13 2 -3 -6 -6 -19 -6 -13 0 -22 2 -20 4 2 2
-3 10 -11 18 -8 9 -18 13 -21 10 -3 -4 -17 0 -32 7 -14 7 -33 12 -41 11 -8 -2
-26 -4 -40 -6 -14 -2 -28 -8 -32 -14 -5 -7 -14 -6 -26 2 -16 9 -25 8 -49 -7
-27 -16 -30 -16 -29 -2 1 13 -8 16 -43 15 -24 -1 -54 3 -67 8 -15 5 -24 5 -24
-1 0 -6 -7 -10 -15 -10 -8 0 -15 5 -15 11 0 11 -89 7 -110 -6 -8 -5 -11 -4 -7
2 5 7 -10 12 -39 15 -39 3 -44 1 -40 -14z m131 -179 c-5 -8 16 -14 38 -10 4 0
7 -4 7 -11 0 -9 3 -9 12 0 15 15 51 15 66 0 9 -9 20 -8 49 5 43 18 74 17 97
-2 9 -7 25 -11 36 -8 11 3 20 0 20 -6 0 -9 2 -9 8 -1 8 14 40 20 62 12 49 -18
89 -25 97 -17 5 5 22 4 39 -3 17 -6 40 -8 50 -4 24 9 29 8 29 -3 0 -18 16 -25
25 -11 7 11 10 12 10 2 0 -8 6 -12 13 -9 6 2 19 -2 28 -9 8 -8 38 -15 66 -16
28 -2 49 -6 47 -9 -2 -3 8 -11 23 -18 21 -10 28 -9 34 1 7 11 9 10 9 -1 0 -7
6 -11 14 -8 8 3 20 0 26 -8 6 -7 20 -12 31 -10 10 2 19 0 19 -6 0 -5 3 -8 8
-7 28 6 121 -36 141 -64 7 -11 19 -17 27 -14 7 3 16 0 20 -5 3 -6 15 -9 25 -6
12 3 19 0 19 -8 0 -8 9 -17 20 -20 11 -3 20 -10 20 -15 0 -4 7 -11 16 -14 8
-3 12 -2 9 4 -3 6 -1 10 4 10 6 0 11 -4 11 -10 0 -5 7 -10 15 -10 9 0 18 -6
21 -14 3 -8 19 -20 36 -27 50 -20 11 -29 -67 -14 -39 7 -73 11 -76 9 -4 -2
-12 3 -19 11 -10 12 -16 13 -27 3 -9 -7 -17 -8 -21 -2 -4 5 -20 11 -37 14 -51
8 -257 3 -264 -7 -3 -5 -13 -8 -21 -8 -8 1 -21 -3 -29 -9 -7 -6 -26 -9 -41 -8
-15 2 -34 -3 -41 -10 -19 -18 -36 -20 -58 -9 -10 6 -22 6 -27 1 -5 -5 -29 -11
-54 -15 -25 -3 -61 -14 -80 -24 -19 -10 -41 -16 -49 -13 -7 2 -16 -1 -20 -7
-4 -6 -29 -13 -56 -16 -51 -5 -105 -24 -105 -37 0 -5 -6 -8 -14 -8 -8 0 -30
-13 -48 -30 -18 -16 -39 -30 -48 -30 -9 0 -16 -10 -16 -24 -1 -18 5 -26 23
-31 33 -8 116 5 125 19 9 13 27 15 50 4 10 -5 18 -3 21 6 4 9 19 14 39 13 18
0 43 5 56 11 12 7 27 10 32 7 5 -3 21 2 35 11 14 9 32 14 40 10 8 -3 15 -1 15
4 0 5 11 7 24 4 14 -2 31 3 40 11 9 9 21 15 28 14 7 -1 34 7 61 19 26 12 54
19 62 16 8 -4 15 -1 15 5 0 7 14 10 37 8 21 -2 43 1 49 8 12 12 54 12 134 -1
25 -4 53 -6 63 -5 9 1 17 -3 17 -8 0 -6 9 -11 20 -11 11 0 20 6 20 13 0 9 2 9
8 0 4 -7 17 -14 27 -16 11 -2 34 -11 51 -20 17 -9 43 -18 57 -21 14 -2 34 -9
45 -15 13 -7 23 -7 32 2 10 10 11 9 5 -2 -6 -10 -4 -13 7 -9 9 4 22 -4 33 -18
9 -13 21 -21 26 -18 5 3 9 0 9 -6 0 -6 5 -8 10 -5 6 3 10 1 10 -5 0 -7 6 -10
14 -7 8 3 18 -4 24 -19 8 -16 16 -22 28 -17 11 4 15 2 11 -4 -4 -6 1 -14 10
-17 9 -4 20 -1 25 6 6 10 8 10 8 -1 0 -7 6 -11 14 -8 9 4 12 0 9 -11 -2 -10 9
-29 26 -46 17 -17 31 -36 31 -43 0 -7 7 -13 15 -13 8 0 15 -4 15 -9 0 -5 8
-17 17 -26 9 -10 18 -34 19 -54 2 -20 10 -63 18 -96 8 -33 17 -87 19 -121 2
-33 7 -66 12 -74 6 -9 4 -11 -4 -5 -10 6 -11 3 -1 -15 6 -12 9 -28 6 -36 -3
-8 -1 -14 3 -14 5 0 7 -10 3 -22 -4 -16 -2 -19 9 -14 8 4 7 1 -3 -6 -13 -11
-14 -18 -5 -33 6 -11 11 -46 10 -78 -1 -49 2 -57 14 -52 13 4 14 3 4 -9 -15
-18 -5 -56 14 -56 9 0 12 -6 9 -15 -4 -8 -11 -12 -18 -8 -7 5 -7 2 1 -8 7 -8
10 -25 6 -37 -3 -13 2 -33 13 -49 10 -16 16 -28 14 -28 -4 0 51 -106 60 -115
15 -15 29 -50 20 -50 -22 0 6 -96 31 -108 4 -2 5 -12 2 -22 -3 -11 -1 -20 3
-20 5 0 9 -16 10 -36 0 -20 5 -39 11 -42 11 -8 26 -55 27 -86 1 -11 7 -21 13
-23 10 -4 10 -10 2 -25 -7 -13 -7 -24 -1 -30 5 -5 6 -26 2 -47 -4 -22 -5 -52
-3 -67 2 -16 4 -35 3 -41 -1 -7 -2 -29 -3 -48 -1 -19 -5 -35 -9 -35 -4 0 -6
-18 -6 -40 0 -23 -2 -44 -5 -47 -4 -3 -2 -14 4 -25 5 -10 6 -24 2 -31 -4 -6
-7 -31 -5 -54 1 -24 -2 -43 -6 -43 -8 0 -9 -3 -15 -90 -2 -30 -9 -65 -15 -77
-7 -12 -12 -28 -12 -37 0 -8 -5 -27 -12 -43 -6 -15 -12 -31 -13 -35 -2 -5 -3
-9 -5 -10 -2 -4 -6 -22 -15 -67 -3 -19 -12 -39 -20 -45 -8 -6 -16 -23 -17 -37
-4 -28 -30 -74 -59 -102 -17 -16 -25 -44 -20 -70 1 -5 -3 -6 -8 -3 -5 4 -15
-7 -23 -24 -7 -16 -16 -30 -20 -30 -5 0 -8 -9 -8 -20 0 -10 -9 -28 -20 -38
-11 -10 -21 -29 -23 -42 -2 -13 -10 -26 -18 -28 -20 -7 -29 -23 -29 -54 0 -21
-5 -28 -19 -28 -15 0 -34 -21 -30 -33 1 -1 -21 -25 -49 -54 -27 -28 -48 -54
-45 -57 3 -3 -29 -39 -71 -80 -42 -41 -76 -73 -76 -70 0 2 -13 -9 -30 -26 -16
-17 -30 -28 -30 -24 0 3 -9 -4 -21 -17 -11 -13 -18 -19 -15 -12 4 7 -5 6 -25
-4 -17 -8 -33 -21 -36 -28 -2 -8 -10 -12 -18 -9 -7 3 -19 -2 -28 -10 -9 -9
-20 -16 -26 -16 -6 0 -11 -7 -11 -15 0 -8 -7 -15 -16 -15 -8 0 -25 -5 -37 -12
-12 -7 -29 -13 -37 -14 -8 -2 -20 -11 -28 -21 -7 -10 -16 -18 -21 -18 -14 0
-91 -40 -91 -47 0 -4 -6 -5 -14 -2 -7 3 -20 -1 -27 -9 -18 -17 -86 -50 -105
-50 -8 0 -14 -4 -14 -9 0 -4 -8 -8 -17 -8 -10 0 -26 -7 -36 -14 -10 -8 -51
-24 -90 -36 -40 -12 -88 -29 -107 -38 -19 -9 -40 -15 -47 -14 -6 2 -14 -2 -17
-6 -3 -5 -19 -8 -36 -6 -16 2 -30 -1 -30 -6 0 -5 -15 -9 -32 -8 -18 0 -97 -3
-175 -7 -88 -4 -156 -2 -179 4 -23 6 -42 7 -49 1 -6 -5 -17 -5 -25 0 -8 5 -21
3 -34 -5 -11 -8 -24 -11 -30 -6 -15 11 -83 21 -91 13 -13 -13 -103 -10 -109 3
-2 7 -24 16 -48 20 -23 4 -52 13 -63 20 -27 17 -75 27 -75 16 0 -16 -24 -18
-73 -6 -26 7 -50 9 -52 5 -8 -13 69 -103 78 -93 3 3 12 -9 21 -25 13 -25 22
-30 53 -30 53 -1 73 -6 83 -22 5 -8 26 -15 47 -17 47 -3 65 -6 80 -16 6 -4 14
-3 17 1 7 12 94 -2 108 -16 9 -9 4 -12 -19 -12 -18 0 -34 4 -38 10 -3 5 -12 7
-20 4 -8 -4 -13 -9 -11 -13 3 -4 -3 -7 -12 -8 -9 -1 -26 -3 -37 -6 -11 -2 -23
1 -27 7 -4 6 -51 12 -110 14 -57 1 -131 5 -165 7 -35 2 -63 0 -63 -5 0 -9 -15
-7 -43 5 -9 4 -26 5 -37 2 -12 -3 -20 0 -20 7 0 11 -14 13 -145 20 -33 2 -72
6 -87 10 -20 4 -28 2 -28 -6 0 -10 -2 -10 -9 0 -4 8 -19 11 -35 8 -14 -3 -24
-1 -21 4 5 8 -27 22 -120 52 -22 7 -44 13 -50 13 -5 0 -16 4 -24 9 -10 7 -12
5 -7 -5 4 -8 1 -6 -7 3 -8 10 -17 15 -20 12 -3 -4 -13 1 -22 10 -9 9 -25 16
-35 16 -29 0 -70 22 -70 37 0 7 -7 13 -16 13 -19 0 -91 38 -118 63 -11 9 -25
17 -32 17 -6 0 -14 8 -17 19 -2 10 -19 24 -36 32 -17 8 -34 22 -37 32 -3 9
-10 15 -15 12 -5 -3 -6 1 -3 9 4 10 -5 22 -25 34 -17 10 -28 23 -23 28 4 5 3
6 -2 2 -11 -9 -48 10 -42 21 3 4 -4 14 -15 21 -10 8 -19 20 -19 27 0 7 -5 13
-11 13 -14 0 -74 64 -97 103 -9 15 -20 27 -25 27 -4 0 -5 5 -2 10 3 6 -1 10
-9 10 -8 0 -23 14 -33 30 -9 17 -23 30 -31 30 -7 0 -20 17 -29 39 -8 21 -25
44 -37 51 -13 6 -30 25 -40 41 -9 16 -22 29 -27 29 -6 0 -8 4 -5 9 7 10 -25
71 -36 71 -5 0 -8 4 -8 9 0 5 -5 22 -12 38 -16 39 -20 54 -22 81 0 12 -4 22
-9 22 -10 0 -30 50 -29 74 1 10 -5 31 -13 46 -8 15 -17 40 -20 56 -8 36 -10
43 -22 74 -6 14 -8 31 -5 39 4 10 1 13 -12 8 -14 -6 -16 -3 -11 13 4 12 2 20
-6 20 -9 0 -8 4 1 15 10 12 10 15 0 15 -8 0 -10 3 -7 7 4 3 -1 12 -11 19 -14
11 -14 15 -4 22 11 7 8 14 -11 29 -15 12 -22 24 -18 31 8 14 -18 135 -31 140
-4 2 -8 26 -8 53 0 32 -4 49 -12 49 -9 0 -10 3 -2 8 11 7 10 101 -1 140 -4 12
-12 22 -19 22 -6 0 -5 4 3 9 13 8 13 12 0 27 -8 10 -9 15 -3 11 15 -9 25 16
14 33 -5 8 -6 27 -3 44 4 20 3 27 -5 22 -6 -3 -14 -2 -17 4 -4 6 -1 9 5 8 16
-4 19 16 25 152 4 115 8 151 20 170 10 15 18 60 19 102 1 20 5 34 10 31 5 -3
7 6 4 21 -3 14 -1 29 4 32 5 3 7 12 4 20 -3 8 -2 14 3 14 4 0 8 7 8 15 0 8 -4
15 -9 15 -5 0 0 10 12 22 11 12 20 31 20 43 0 11 6 27 13 34 10 11 9 12 -2 6
-9 -5 -12 -3 -9 6 3 8 1 22 -4 32 -6 11 -5 17 2 17 6 0 8 5 5 10 -3 6 -1 10 5
10 7 0 10 6 7 14 -3 8 0 17 8 20 8 3 11 13 8 25 -3 13 -1 21 7 21 7 0 10 7 6
15 -3 8 0 15 6 15 9 0 9 3 1 11 -7 7 -8 21 -3 39 5 16 6 31 2 34 -3 3 0 6 6 6
7 0 10 10 8 22 -3 26 18 84 40 106 8 8 18 27 21 43 3 16 9 29 14 29 5 0 9 5 9
11 0 5 -5 7 -12 3 -6 -4 0 8 15 28 15 19 24 38 20 41 -3 4 -1 7 6 7 7 0 9 5 6
10 -3 6 1 13 9 16 9 3 16 14 16 23 0 10 11 28 25 41 14 13 25 34 25 47 0 14 4
21 10 18 6 -3 10 -2 10 4 0 5 9 13 20 16 11 3 20 11 20 16 0 8 22 38 60 79 8
9 24 33 34 53 11 20 23 37 28 37 4 0 7 5 6 11 -2 6 14 20 35 31 20 11 37 24
37 29 0 26 134 134 156 125 8 -3 27 7 44 26 18 18 30 25 30 17 1 -9 6 -8 16 6
8 11 19 20 24 20 4 0 12 3 16 8 4 4 18 7 30 7 13 0 26 5 29 10 4 6 11 8 16 5
5 -4 9 -1 9 4 0 6 12 11 26 11 14 0 22 4 19 10 -3 6 1 7 9 4 9 -3 16 -1 16 5
0 6 3 10 8 9 14 -5 54 30 47 41 -3 7 -3 10 2 9 13 -3 83 25 83 34 0 4 6 5 14
2 8 -3 17 -1 21 5 3 6 14 11 23 11 9 0 30 7 46 15 16 9 31 13 34 10 3 -2 18 5
33 16 16 11 29 18 29 15 0 -3 15 3 33 14 43 27 64 36 117 51 25 7 50 16 55 20
6 3 18 5 28 3 13 -2 17 2 13 13 -5 12 -3 13 7 5 8 -7 18 -7 27 -2 8 5 18 6 22
4 4 -3 8 -1 8 4 0 5 6 9 13 10 29 4 62 10 62 12 0 1 16 4 35 7 19 2 45 11 58
19 12 8 22 11 22 6 0 -10 30 -9 48 2 7 4 10 10 8 14 -2 4 16 8 40 10 24 1 44
-2 44 -7 0 -13 79 -5 117 11 37 15 46 16 61 5 6 -5 12 -6 12 -2 0 4 6 2 14 -4
11 -9 16 -9 22 0 5 8 3 9 -6 4 -9 -5 -11 -4 -6 4 6 8 12 9 20 2 14 -12 56 -6
66 8 3 6 11 6 20 1 9 -5 19 -5 26 1 17 14 66 18 81 6 7 -5 18 -5 25 -1 7 5 21
7 32 5 12 -2 16 1 11 10 -5 8 -4 10 4 5 6 -4 9 -12 6 -17z m475 -13 c0 -3 -4
-8 -10 -11 -5 -3 -10 -1 -10 4 0 6 5 11 10 11 6 0 10 -2 10 -4z m958 -391 c-3
-3 -9 2 -12 12 -6 14 -5 15 5 6 7 -7 10 -15 7 -18z m17 -24 c3 -5 2 -12 -3
-15 -5 -3 -9 1 -9 9 0 17 3 19 12 6z m-192 -40 c3 -12 0 -18 -7 -15 -6 2 -12
13 -12 24 0 23 12 17 19 -9z m527 -1 c0 -5 -2 -10 -4 -10 -3 0 -8 5 -11 10 -3
6 -1 10 4 10 6 0 11 -4 11 -10z m-267 -134 c4 -10 1 -13 -8 -9 -8 3 -12 9 -9
14 7 12 11 11 17 -5z m64 -18 c-3 -8 -6 -5 -6 6 -1 11 2 17 5 13 3 -3 4 -12 1
-19z m333 -564 c-1 -3 8 -14 20 -24 18 -15 18 -18 4 -24 -13 -5 -11 -12 17
-44 18 -20 36 -37 40 -37 4 0 11 -4 16 -8 4 -5 2 -7 -6 -5 -7 2 -16 -3 -19
-11 -3 -9 0 -11 9 -6 11 6 12 5 2 -5 -10 -11 -9 -18 7 -35 11 -12 21 -40 24
-69 2 -26 9 -53 15 -59 14 -14 14 -47 1 -47 -6 0 -6 -10 1 -27 6 -16 9 -28 8
-28 -1 0 1 -10 5 -23 4 -12 11 -20 15 -18 4 3 5 -11 3 -30 -2 -19 -5 -34 -7
-34 -1 0 -14 17 -29 38 -16 24 -27 54 -29 82 -1 25 -5 50 -9 55 -3 6 -9 24
-12 40 -9 40 -39 75 -66 75 -12 0 -18 5 -15 10 3 6 0 10 -7 10 -8 0 -9 3 -3 8
6 4 16 17 22 29 10 18 10 25 -1 36 -9 8 -11 19 -6 27 5 8 6 18 4 22 -3 4 -7
24 -8 43 -2 19 -9 41 -15 48 -8 10 -7 17 2 26 11 11 21 2 17 -15z m-4339 -331
c13 -16 12 -17 -3 -4 -10 7 -18 15 -18 17 0 8 8 3 21 -13z m3992 -2118 c-3 -9
-8 -14 -10 -11 -3 3 -2 9 2 15 9 16 15 13 8 -4z"/>
<path d="M6110 6030 c0 -5 5 -10 10 -10 6 0 10 5 10 10 0 6 -4 10 -10 10 -5 0
-10 -4 -10 -10z"/>
<path d="M4893 5867 c-2 -4 -10 -7 -16 -6 -34 4 -59 -3 -74 -21 -10 -11 -23
-20 -30 -20 -14 0 -15 -2 -17 -165 -1 -77 2 -114 11 -123 7 -7 13 -24 13 -37
0 -30 67 -95 100 -96 14 0 33 -2 44 -4 10 -2 28 0 40 5 11 4 25 8 30 8 5 0 12
4 15 9 3 5 26 17 50 28 37 16 47 28 72 82 16 35 29 75 29 88 0 14 4 25 9 25
13 0 19 72 8 91 -6 10 -19 14 -37 11 -19 -3 -32 2 -41 15 -8 11 -22 22 -33 26
-13 5 -17 13 -12 31 7 27 -15 52 -38 43 -8 -3 -17 1 -20 8 -5 15 -93 17 -103
2z"/>
<path d="M2913 5794 c-18 -9 -33 -20 -33 -25 0 -5 -6 -9 -13 -9 -24 0 -43 -36
-46 -85 -1 -27 -4 -52 -7 -57 -3 -4 2 -21 11 -37 8 -17 14 -45 13 -63 -3 -28
3 -37 47 -70 53 -40 82 -48 91 -23 4 9 11 15 18 14 28 -3 46 2 46 14 0 14 52
57 69 57 16 0 19 25 5 45 -15 20 -19 57 -7 69 11 11 12 36 1 36 -6 0 -8 9 -5
20 8 30 -35 76 -78 84 -21 4 -33 11 -29 18 7 12 -13 28 -36 28 -8 0 -30 -8
-47 -16z"/>
<path d="M3899 4333 c-1 -4 -1 -11 -1 -14 0 -3 -34 -4 -76 -3 -43 2 -82 -2
-89 -8 -9 -7 -17 -7 -28 2 -25 20 -125 5 -150 -23 -11 -13 -28 -26 -37 -30
-10 -3 -18 -14 -18 -22 0 -9 -7 -23 -15 -31 -12 -12 -13 -20 -3 -37 6 -12 11
-23 10 -24 -8 -12 4 -25 35 -38 35 -15 69 -16 103 -2 25 9 113 20 146 18 18
-1 34 1 37 6 4 7 161 9 192 3 6 -1 12 -1 15 0 7 3 118 11 154 11 15 0 35 -6
43 -12 7 -7 44 -14 81 -15 37 -2 91 -5 119 -7 44 -3 54 -1 59 15 3 10 12 18
20 18 8 0 14 5 14 11 0 7 7 17 16 23 8 6 19 28 23 48 8 35 6 39 -26 64 -19 14
-37 24 -40 21 -2 -3 -21 0 -41 7 -21 8 -60 12 -87 11 -28 -1 -58 3 -67 9 -13
8 -22 6 -36 -7 -12 -11 -29 -16 -43 -13 -13 3 -37 8 -54 11 -16 2 -43 7 -60
11 -22 4 -26 3 -15 -5 12 -8 12 -13 2 -23 -7 -7 -12 -8 -12 -2 0 22 -168 48
-171 27z"/>
<path d="M5302 2882 c-32 -5 -46 -40 -31 -77 7 -17 13 -32 14 -35 9 -34 19
-50 33 -50 22 -1 52 -24 52 -41 0 -13 78 -89 92 -89 4 0 8 -7 8 -17 0 -9 3
-14 6 -10 6 6 71 -37 85 -56 3 -4 19 -9 35 -10 16 -1 40 -13 53 -27 13 -13 29
-25 35 -26 6 0 18 -2 27 -2 9 -1 20 -13 23 -27 4 -16 11 -22 21 -19 9 4 15 0
15 -9 0 -8 5 -17 11 -19 5 -2 12 -12 13 -23 2 -11 9 -19 16 -17 7 2 22 -5 34
-15 25 -22 47 -23 72 -3 10 8 15 9 10 3 -4 -7 1 -19 12 -29 20 -17 19 -70 -1
-57 -6 3 -7 1 -3 -5 4 -6 14 -8 24 -5 9 3 14 3 11 -1 -4 -4 9 -23 27 -42 19
-19 33 -38 30 -43 -3 -5 5 -8 19 -8 14 0 22 4 18 10 -3 6 -1 7 6 3 9 -6 9 -11
-1 -24 -10 -12 -10 -14 0 -8 7 4 15 1 18 -8 3 -9 12 -16 20 -16 7 0 11 -6 8
-14 -3 -8 -1 -17 5 -21 6 -3 11 -14 11 -24 0 -10 8 -25 17 -32 14 -12 16 -12
8 0 -5 10 -4 12 3 7 7 -4 12 -15 12 -25 0 -11 12 -24 30 -31 16 -7 35 -25 42
-40 9 -22 17 -27 37 -24 18 3 22 2 12 -5 -13 -8 -8 -15 111 -146 10 -11 27
-31 39 -45 14 -16 23 -21 26 -12 3 6 9 12 14 12 5 0 4 -9 -3 -21 -11 -17 -10
-22 6 -31 11 -6 32 -24 47 -40 16 -15 33 -28 38 -28 5 0 13 -5 17 -12 5 -8 1
-9 -12 -4 -12 5 -6 -6 16 -28 19 -19 39 -36 43 -36 10 0 37 -26 40 -37 1 -4 5
-7 9 -6 3 1 9 -4 12 -13 4 -10 1 -13 -7 -9 -6 4 -4 0 6 -8 9 -8 17 -22 17 -31
0 -10 4 -15 9 -11 12 7 31 -26 31 -54 0 -19 14 -38 78 -108 12 -13 22 -29 22
-36 1 -16 84 -107 98 -107 14 0 62 -44 62 -58 0 -6 12 -19 26 -29 14 -10 26
-27 28 -37 1 -10 28 -42 59 -71 31 -28 54 -55 50 -60 -5 -4 -3 -5 3 -2 13 7
44 -27 44 -48 0 -8 5 -15 11 -15 6 0 9 -7 5 -15 -3 -8 -1 -15 4 -15 6 0 9 -3
8 -8 -2 -4 8 -19 21 -32 12 -14 30 -35 38 -47 17 -26 9 -65 -12 -56 -26 9 -26
-23 -1 -73 14 -27 26 -45 26 -40 0 5 10 -4 22 -20 13 -16 28 -35 35 -42 7 -7
13 -17 13 -22 0 -5 10 -30 21 -57 25 -54 32 -100 18 -108 -13 -9 -11 -51 4
-62 6 -6 28 -16 47 -22 49 -15 96 -60 96 -91 l0 -25 112 -3 112 -3 -4 33 c-6
45 -16 70 -38 91 -10 10 -18 25 -19 35 -3 83 -33 181 -70 233 -10 15 -19 30
-19 34 0 4 -9 15 -20 25 -11 9 -21 27 -23 38 -2 12 -10 29 -19 39 -8 10 -25
41 -38 68 -13 28 -27 52 -31 55 -5 3 -15 22 -23 42 -9 20 -20 40 -26 43 -6 4
-8 11 -5 16 4 5 1 9 -5 9 -6 0 -8 5 -5 10 3 6 1 10 -4 10 -6 0 -11 7 -11 16 0
9 -17 33 -37 53 -21 21 -48 49 -60 62 -12 13 -40 41 -62 63 -22 21 -43 47 -46
57 -4 11 -11 19 -16 19 -5 0 -18 15 -29 33 -11 17 -20 28 -20 23 0 -18 -200
176 -200 194 0 8 -16 35 -35 59 -19 24 -32 47 -29 52 3 5 -3 9 -13 9 -15 0
-16 2 -3 10 12 8 10 10 -10 10 -30 1 -58 20 -53 37 3 7 -2 20 -10 28 -19 18
-31 20 -21 3 5 -9 3 -9 -9 1 -9 7 -14 17 -11 22 3 5 -2 9 -10 9 -9 0 -16 7
-16 16 0 10 -5 14 -16 10 -8 -3 -12 -2 -9 4 6 9 -7 14 -27 11 -4 0 -5 6 -1 15
7 18 -83 109 -93 93 -10 -17 -21 0 -16 27 3 19 1 25 -7 20 -6 -4 -11 -1 -11 6
-1 8 -6 6 -15 -6 -15 -20 -15 -20 -16 0 -4 54 -7 68 -18 72 -6 2 -11 10 -11
19 0 17 -18 36 -42 46 -10 3 -18 11 -18 17 0 6 -4 9 -8 6 -11 -6 -68 54 -76
80 -4 12 -18 34 -31 50 -14 16 -25 35 -25 42 0 7 -4 11 -8 8 -5 -3 -20 1 -35
9 -14 7 -28 10 -32 7 -3 -4 -3 2 1 11 5 13 -6 30 -40 61 -25 24 -46 51 -46 60
0 9 -9 21 -20 28 -11 7 -20 16 -20 20 0 16 -99 110 -109 103 -6 -3 -11 -2 -11
4 0 5 -14 22 -31 38 -17 15 -39 36 -47 46 -9 9 -22 17 -30 17 -7 0 -15 7 -18
15 -4 8 -13 15 -21 15 -7 0 -24 10 -36 23 -12 12 -39 34 -59 47 -21 14 -38 28
-38 33 0 4 -5 7 -12 7 -12 0 -88 80 -88 93 0 4 -7 7 -15 7 -8 0 -15 5 -15 11
0 6 -6 9 -14 6 -8 -3 -17 1 -20 9 -3 9 -10 13 -14 10 -5 -3 -15 6 -22 19 -7
13 -16 22 -20 20 -4 -3 -16 7 -26 20 -10 14 -24 25 -29 25 -6 0 -21 9 -33 20
-22 21 -58 29 -100 22z m1218 -1086 c0 -3 -4 -8 -10 -11 -5 -3 -10 -1 -10 4 0
6 5 11 10 11 6 0 10 -2 10 -4z m-35 -76 c1 -30 -7 -32 -11 -3 -2 14 3 33 9 33
1 0 2 -13 2 -30z m320 -249 c3 -5 2 -12 -3 -15 -5 -3 -9 1 -9 9 0 17 3 19 12
6z"/>
<path d="M2750 2427 c-46 -11 -91 -31 -117 -50 -88 -67 -151 -110 -158 -108
-4 2 -11 -1 -14 -6 -3 -4 -21 -21 -39 -36 -19 -15 -30 -27 -26 -27 5 0 -11
-18 -36 -40 -24 -21 -47 -37 -52 -34 -4 3 -12 -6 -18 -20 -5 -14 -14 -26 -20
-26 -5 0 -10 -6 -10 -12 -1 -16 -46 -69 -57 -67 -21 4 -33 -2 -33 -16 0 -9 -7
-18 -15 -21 -8 -3 -17 -14 -20 -24 -3 -11 -22 -35 -41 -54 -20 -20 -33 -40
-30 -45 4 -5 -3 -16 -15 -24 -11 -8 -19 -23 -18 -34 4 -26 -11 -64 -22 -58 -5
4 -9 2 -9 -4 0 -6 -7 -8 -15 -5 -10 4 -15 0 -15 -11 0 -9 -4 -13 -10 -10 -5 3
-10 2 -10 -3 0 -12 -42 -56 -102 -105 -32 -26 -44 -44 -41 -56 3 -10 -5 -29
-19 -44 -57 -63 -83 -110 -72 -130 5 -9 3 -9 -6 0 -10 9 -17 7 -30 -10 -10
-12 -18 -26 -19 -32 -1 -5 -14 -23 -29 -40 -15 -16 -27 -39 -27 -50 1 -22 -25
-46 -39 -38 -5 4 -6 1 -2 -5 4 -6 0 -22 -9 -35 -8 -13 -12 -27 -8 -31 4 -4 -1
-4 -11 0 -13 5 -17 4 -12 -4 3 -6 2 -13 -4 -17 -6 -4 -8 -11 -4 -16 3 -5 1 -8
-4 -7 -13 4 -62 -53 -62 -71 0 -11 4 -9 15 5 15 18 15 18 8 0 -5 -15 -3 -18 8
-12 8 4 5 1 -5 -6 -40 -26 -67 -61 -56 -72 15 -15 12 -26 -5 -19 -9 3 -15 1
-13 -6 2 -6 -8 -17 -22 -24 -15 -8 -27 -24 -31 -45 -4 -19 -17 -40 -28 -49
-17 -12 -19 -18 -10 -29 9 -11 6 -16 -15 -25 -14 -7 -23 -16 -20 -20 3 -5 1
-9 -5 -9 -5 0 -8 -8 -6 -17 3 -23 -30 -54 -50 -47 -11 4 -14 2 -10 -9 4 -8 -1
-22 -10 -31 -9 -9 -14 -16 -10 -16 4 0 -3 -11 -14 -25 -11 -16 -18 -35 -15
-50 3 -17 -1 -25 -17 -30 -11 -4 -18 -9 -15 -12 3 -3 -1 -12 -9 -19 -16 -16
-29 -19 -20 -4 3 6 -1 7 -9 4 -19 -7 -20 -16 -3 -33 6 -7 8 -11 2 -9 -5 2 -11
-1 -12 -5 -2 -12 -44 -47 -55 -47 -5 0 -8 -6 -5 -12 2 -7 10 -12 16 -10 21 4
11 -9 -15 -18 -14 -6 -22 -14 -19 -20 3 -6 -1 -7 -9 -4 -10 4 -16 1 -16 -7 0
-20 -41 -99 -51 -99 -5 0 -9 -11 -9 -25 0 -13 -6 -28 -14 -32 -7 -4 -18 -18
-25 -30 -6 -13 -18 -23 -27 -23 -12 0 -12 -4 -4 -20 7 -14 7 -20 0 -20 -5 0
-10 -4 -10 -9 0 -15 132 -11 147 5 8 8 12 18 9 23 -3 5 2 8 12 7 9 0 16 5 14
12 -1 6 4 12 12 12 15 0 11 35 -7 57 -10 14 -6 16 37 13 25 -2 28 1 23 19 -3
12 -1 21 5 21 5 0 6 5 3 10 -3 5 1 10 9 10 10 0 16 9 16 24 0 13 7 29 15 36 8
7 14 19 13 28 -2 8 6 19 17 26 11 6 23 15 26 19 3 4 16 9 28 10 12 1 20 6 17
14 -3 6 0 14 7 17 7 2 4 5 -5 5 -17 1 -17 2 0 21 9 12 17 26 17 32 0 7 9 15
20 18 11 3 21 12 23 20 2 8 10 19 18 23 8 5 12 12 9 18 -4 5 1 9 9 9 8 0 18 5
22 12 5 8 2 9 -11 4 -15 -5 -16 -4 -5 9 7 8 9 15 4 15 -5 1 2 10 15 20 13 11
20 20 15 20 -4 0 5 14 21 30 16 17 25 30 20 30 -5 0 0 7 11 15 14 11 16 17 6
23 -9 6 -7 13 7 29 11 11 18 23 15 26 -3 2 9 9 25 15 30 11 35 19 32 53 -1 9
12 27 29 40 16 13 30 29 30 35 0 7 7 15 16 18 9 4 14 9 11 13 -4 3 7 21 23 40
26 29 37 63 31 96 -1 5 8 11 19 14 11 3 20 9 20 14 0 5 7 9 16 9 10 0 14 5 10
16 -3 9 -2 12 4 9 10 -6 9 15 -2 55 -3 8 -3 12 -1 7 3 -4 9 -5 14 -1 5 3 5 13
-1 25 -14 25 -5 39 21 34 11 -2 22 2 25 10 3 7 14 12 25 10 11 -2 19 2 19 10
0 8 8 19 18 24 17 9 30 62 14 60 -20 -3 -33 2 -27 11 4 6 10 8 15 5 4 -3 10 1
13 9 3 8 15 12 31 9 20 -4 28 0 37 21 7 15 28 36 46 47 21 13 32 27 29 35 -3
8 3 16 17 20 22 5 94 91 90 106 -2 4 6 8 17 8 11 0 20 7 20 15 0 8 5 15 11 15
8 0 8 5 -1 15 -10 12 -8 16 11 24 13 5 27 7 32 4 4 -2 7 2 7 11 0 8 5 16 11
18 6 2 12 15 12 30 1 14 4 25 6 23 7 -8 55 49 56 67 2 22 60 79 71 69 4 -3 5
1 1 10 -3 10 3 25 16 37 25 23 87 56 87 46 0 -4 6 -1 13 5 8 6 17 7 22 3 4 -4
6 7 3 24 -2 17 1 31 6 32 31 3 83 25 106 44 21 17 63 78 54 78 -3 0 -1 7 7 16
11 14 14 13 26 -8 12 -20 13 -21 11 -3 -3 17 2 19 29 17 17 -2 34 1 38 7 3 6
17 11 29 11 13 0 29 7 36 15 7 8 16 13 20 10 14 -9 53 34 46 51 -4 10 -1 21 5
25 16 9 14 70 -2 80 -7 4 -16 6 -20 3 -4 -2 -9 0 -11 6 -6 18 -41 17 -118 -3z
m-1370 -1577 c0 -5 -5 -10 -11 -10 -5 0 -7 5 -4 10 3 6 8 10 11 10 2 0 4 -4 4
-10z"/>
</g>
</svg>
